<svg width="48" height="48" viewBox="0 0 48 48" fill="none" xmlns="http://www.w3.org/2000/svg">
<path d="M35.5859 10.5858C36.367 9.80474 37.633 9.80474 38.414 10.5858C39.1951 11.3668 39.1951 12.6329 38.414 13.4139C31.2478 20.5802 25.3258 30.4347 22.3125 35.9823C20.9009 38.581 17.1817 38.8907 15.4355 36.3963L10.3613 29.1463C9.72822 28.2415 9.94873 26.9945 10.8535 26.3612C11.7584 25.7281 13.0053 25.9486 13.6387 26.8534L18.7129 34.1014L18.7148 34.1053C18.7183 34.1062 18.7259 34.108 18.7383 34.1073C18.7569 34.1061 18.7721 34.1018 18.7793 34.0975C18.7819 34.0959 18.7836 34.0932 18.7851 34.0916C18.7865 34.0902 18.7909 34.085 18.7969 34.0741C21.8605 28.4338 28.0033 18.1684 35.5859 10.5858Z" fill="#01013A"/>
</svg>
