<svg width="48" height="48" viewBox="0 0 48 48" fill="none" xmlns="http://www.w3.org/2000/svg">
<path d="M24 6C33.9411 6 42 14.0589 42 24C42 33.9411 33.9411 42 24 42C14.0589 42 6 33.9411 6 24C6 14.0589 14.0589 6 24 6ZM24 7.5C14.8873 7.5 7.5 14.8873 7.5 24C7.5 33.1127 14.8873 40.5 24 40.5C33.1127 40.5 40.5 33.1127 40.5 24C40.5 14.8873 33.1127 7.5 24 7.5ZM23.3584 17.2354C24.0093 16.6905 25 17.1531 25 18.002V30.7197C24.9991 31.5676 24.009 32.0302 23.3584 31.4863L18.5098 27.4268C18.3298 27.2761 18.1019 27.1943 17.8672 27.1943H15C14.4481 27.1943 14.0007 26.7461 14 26.1943V22.5273C14 21.9751 14.4477 21.5273 15 21.5273H17.8672C18.1017 21.5273 18.3299 21.4444 18.5098 21.2939L23.3584 17.2354ZM32.6465 20.6465C32.8417 20.4512 33.1583 20.4512 33.3535 20.6465C33.5485 20.8418 33.5487 21.1583 33.3535 21.3535L30.707 24L33.3535 26.6465C33.5485 26.8418 33.5487 27.1583 33.3535 27.3535C33.1583 27.5483 32.8416 27.5484 32.6465 27.3535L30 24.707L27.3535 27.3535C27.1583 27.5483 26.8417 27.5484 26.6465 27.3535C26.4513 27.1584 26.4516 26.8418 26.6465 26.6465L29.293 24L26.6465 21.3535C26.4514 21.1584 26.4516 20.8418 26.6465 20.6465C26.8417 20.4512 27.1583 20.4512 27.3535 20.6465L30 23.293L32.6465 20.6465Z" fill="#01013A"/>
</svg>
