<svg width="48" height="48" viewBox="0 0 48 48" fill="none" xmlns="http://www.w3.org/2000/svg">
<path d="M24.5 6.5C34.4411 6.5 42.5 14.5589 42.5 24.5C42.5 34.4411 34.4411 42.5 24.5 42.5C14.5589 42.5 6.5 34.4411 6.5 24.5C6.5 14.5589 14.5589 6.5 24.5 6.5ZM24.5 8C15.3873 8 8 15.3873 8 24.5C8 33.6127 15.3873 41 24.5 41C33.6127 41 41 33.6127 41 24.5C41 15.3873 33.6127 8 24.5 8ZM22.9775 21.6074C23.0793 21.6038 23.1988 21.6501 23.2646 21.7598L23.2891 21.8115L23.4004 22.0938C23.5393 22.4362 23.7586 22.9441 24.0293 23.4688C24.3951 24.1776 24.8374 24.8808 25.2861 25.2637C26.7606 26.5216 28.2361 27.0994 28.7363 27.2715C28.896 27.3266 28.9541 27.4748 28.9531 27.583C28.9519 27.6915 28.8895 27.8404 28.7256 27.8906C28.1835 28.0562 26.5655 28.6311 25.3018 29.8887C24.0093 31.1752 23.4343 32.8312 23.2832 33.332C23.2385 33.4797 23.1078 33.5517 22.9951 33.5596C22.8821 33.5672 22.7416 33.5133 22.6777 33.3711C22.444 32.8504 21.5945 31.0753 20.4023 29.8887C19.3376 28.829 17.7251 28.1114 17.1992 27.8955C17.0466 27.8329 16.9934 27.6853 17.001 27.5742C17.0087 27.4637 17.0801 27.3275 17.2363 27.2842L17.4746 27.2129C18.133 27.0019 19.4824 26.4573 20.668 25.2773C21.839 24.1116 22.5027 22.3521 22.6826 21.8242C22.7315 21.6811 22.8623 21.6118 22.9775 21.6074ZM29.4971 17.2607C29.5618 17.2584 29.6377 17.2878 29.6797 17.3574L29.6953 17.3906L29.7666 17.5693C29.855 17.7872 29.9947 18.1113 30.167 18.4453C30.3997 18.8963 30.6814 19.3433 30.9668 19.5869C31.905 20.3874 32.8438 20.7557 33.1621 20.8652C33.2636 20.9004 33.3005 20.9947 33.2998 21.0635C33.299 21.1325 33.2594 21.2268 33.1553 21.2588C32.8105 21.3641 31.7808 21.7301 30.9766 22.5303C30.1541 23.3489 29.7876 24.4029 29.6914 24.7217C29.663 24.8155 29.5804 24.8611 29.5088 24.8662C29.4368 24.8711 29.3473 24.8367 29.3066 24.7461C29.1577 24.4144 28.6168 23.2852 27.8584 22.5303C27.1809 21.8561 26.1551 21.3992 25.8203 21.2617C25.7232 21.2219 25.6895 21.1283 25.6943 21.0576C25.6992 20.9873 25.7443 20.9006 25.8438 20.873L25.9951 20.8281C26.414 20.6939 27.2728 20.3467 28.0273 19.5957C28.7725 18.8539 29.1951 17.7343 29.3096 17.3984C29.3407 17.3075 29.4238 17.2635 29.4971 17.2607ZM25.6934 14C25.7303 13.9987 25.7739 14.016 25.7979 14.0557L25.8076 14.0742L25.8477 14.1768C25.8981 14.3012 25.9778 14.4861 26.0762 14.6768C26.2092 14.9345 26.37 15.1908 26.5332 15.3301C27.0693 15.7875 27.6062 15.998 27.7881 16.0605C27.8458 16.0807 27.8676 16.1346 27.8672 16.1738C27.8666 16.2132 27.8434 16.2669 27.7842 16.2852C27.5872 16.3453 26.9986 16.5545 26.5391 17.0117C26.0692 17.4794 25.8597 18.0814 25.8047 18.2637C25.7885 18.3174 25.7411 18.3438 25.7002 18.3467C25.6592 18.3494 25.6082 18.3298 25.585 18.2783C25.5 18.089 25.1912 17.4432 24.7578 17.0117C24.3709 16.6266 23.7844 16.3658 23.5928 16.2871C23.5373 16.2643 23.5178 16.2103 23.5205 16.1699C23.5234 16.1297 23.5496 16.0801 23.6064 16.0645L23.6924 16.0391C23.9318 15.9623 24.4234 15.7641 24.8545 15.335C25.2802 14.9111 25.5215 14.271 25.5869 14.0791C25.6047 14.0274 25.6516 14.0017 25.6934 14Z" fill="#01013A"/>
</svg>
