<svg width="48" height="48" viewBox="0 0 48 48" fill="none" xmlns="http://www.w3.org/2000/svg">
<path d="M44 24C44 35.0457 35.0457 44 24 44C12.9543 44 4 35.0457 4 24C4 12.9543 12.9543 4 24 4C35.0457 4 44 12.9543 44 24Z" fill="#0000DC"/>
<path d="M34.1409 12.92C34.3905 13.0369 34.4679 13.2575 34.4896 13.3447C34.528 13.4993 34.4978 13.6346 34.4951 13.6485C34.4861 13.6953 34.4731 13.7393 34.4627 13.7735C34.4223 13.9054 34.3454 14.0998 34.25 14.3259C34.053 14.7925 33.7319 15.5016 33.3233 16.3809C32.5045 18.1432 31.3198 20.6201 30.0336 23.2821C27.4608 28.6071 24.4757 34.6866 23.1849 37.311C22.6802 38.337 21.2405 38.1861 20.875 37.1681L18.0535 29.2988L10.2104 26.4869C9.1561 26.1089 9.08176 24.6462 10.0924 24.1633L33.5049 12.9745C33.535 12.9539 33.5696 12.9326 33.6085 12.9151C33.6833 12.8817 33.8973 12.806 34.1409 12.92ZM19.2751 28.9694L22.0614 36.7399C23.3559 34.1079 26.3331 28.044 28.899 22.7332C30.0891 20.2701 31.1889 17.9711 31.9919 16.2525L19.2751 28.9694ZM10.6358 25.3006L18.3843 28.0786L30.7973 15.6655L10.6358 25.3006Z" fill="#F6F6FF"/>
</svg>
