<svg width="48" height="48" viewBox="0 0 48 48" fill="none" xmlns="http://www.w3.org/2000/svg">
<path d="M24 7C30.0751 7 35 11.9249 35 18H36C38.2091 18 40 19.7909 40 22V35C40 37.2091 38.2091 39 36 39H12C9.85996 39 8.11211 37.3194 8.00488 35.2061L8 35V22C8 19.7909 9.79086 18 12 18H13C13 11.9249 17.9249 7 24 7ZM12 20C10.8954 20 10 20.8954 10 22V35C10 36.1046 10.8954 37 12 37H36C37.1046 37 38 36.1046 38 35V22C38 20.8954 37.1046 20 36 20H12ZM24 26C25.1046 26 26 26.8954 26 28C26 28.7398 25.5971 29.3835 25 29.7295V32C25 32.5523 24.5523 33 24 33C23.4477 33 23 32.5523 23 32V29.7295C22.4029 29.3835 22 28.7398 22 28C22 26.8954 22.8954 26 24 26ZM24 9C19.0294 9 15 13.0294 15 18H33C33 13.0294 28.9706 9 24 9Z" fill="#01013A"/>
</svg>
