<svg width="48" height="48" viewBox="0 0 48 48" fill="none" xmlns="http://www.w3.org/2000/svg">
<path d="M24.5 6.5C34.4411 6.5 42.5 14.5589 42.5 24.5C42.5 34.4411 34.4411 42.5 24.5 42.5C14.5589 42.5 6.5 34.4411 6.5 24.5C6.5 14.5589 14.5589 6.5 24.5 6.5ZM24.5 8C15.3873 8 8 15.3873 8 24.5C8 33.6127 15.3873 41 24.5 41C33.6127 41 41 33.6127 41 24.5C41 15.3873 33.6127 8 24.5 8ZM24.4043 18.2051C25.2374 18.2051 25.9628 18.3521 26.5801 18.6475C27.2012 18.9391 27.6846 19.3444 28.0293 19.8633C28.3739 20.3821 28.5458 20.9771 28.5459 21.6475C28.5459 22.0869 28.4594 22.5212 28.2852 22.9492C28.1147 23.3772 27.8094 23.8524 27.3701 24.375C26.9307 24.8939 26.311 25.5169 25.5117 26.2441L23.8135 27.9092V27.9883H28.6992V30H20.4043V28.2275L24.5459 24.3926C24.8982 24.0517 25.194 23.7444 25.4326 23.4717C25.6749 23.1991 25.8584 22.9321 25.9834 22.6709C26.1084 22.4057 26.1709 22.1193 26.1709 21.8125C26.1709 21.4716 26.0938 21.1778 25.9385 20.9316C25.7832 20.6817 25.5707 20.491 25.3018 20.3584C25.0328 20.222 24.7276 20.1533 24.3867 20.1533C24.0308 20.1534 23.7201 20.2253 23.4551 20.3691C23.1901 20.513 22.9857 20.7195 22.8418 20.9883C22.6979 21.2572 22.626 21.578 22.626 21.9492H20.291C20.291 21.1879 20.4629 20.5264 20.8076 19.9658C21.1523 19.4053 21.6357 18.9718 22.2568 18.665C22.878 18.3583 23.5938 18.2051 24.4043 18.2051Z" fill="#01013A"/>
</svg>
