<svg width="48" height="48" viewBox="0 0 48 48" fill="none" xmlns="http://www.w3.org/2000/svg">
<path d="M20.625 11.625C25.5956 11.625 29.625 15.6544 29.625 20.625C29.625 22.2939 29.1686 23.8555 28.377 25.1953L35.7168 32.5352C36.5955 33.4138 36.5955 34.8381 35.7168 35.7168C34.8381 36.5955 33.4138 36.5955 32.5352 35.7168L25.1953 28.377C23.8555 29.1686 22.2939 29.625 20.625 29.625C15.6544 29.625 11.625 25.5956 11.625 20.625C11.625 15.6544 15.6544 11.625 20.625 11.625ZM20.625 12.75C16.2758 12.75 12.75 16.2758 12.75 20.625C12.75 24.9742 16.2758 28.5 20.625 28.5C24.9742 28.5 28.5 24.9742 28.5 20.625C28.5 16.2758 24.9742 12.75 20.625 12.75ZM20.7051 13.4258C21.0153 13.4411 21.2544 13.7044 21.2393 14.0146C21.2241 14.3248 20.9605 14.5638 20.6504 14.5488C18.6427 14.4505 17.0386 15.731 16.5059 16.373C16.3077 16.612 15.953 16.6461 15.7139 16.4482C15.4749 16.25 15.4416 15.8944 15.6396 15.6553C16.3044 14.8539 18.2188 13.304 20.7051 13.4258Z" fill="#01013A"/>
</svg>
