<svg width="48" height="48" viewBox="0 0 48 48" fill="none" xmlns="http://www.w3.org/2000/svg">
<path d="M40.5 34C41.3284 34 42 34.6716 42 35.5C42 36.3284 41.3284 37 40.5 37H7.5C6.67157 37 6 36.3284 6 35.5C6 34.6716 6.67157 34 7.5 34H40.5ZM40.5 23C41.3284 23 42 23.6716 42 24.5C42 25.3284 41.3284 26 40.5 26H7.5C6.67157 26 6 25.3284 6 24.5C6 23.6716 6.67157 23 7.5 23H40.5ZM40.5 12C41.3284 12 42 12.6716 42 13.5C42 14.3284 41.3284 15 40.5 15H7.5C6.67157 15 6 14.3284 6 13.5C6 12.6716 6.67157 12 7.5 12H40.5Z" fill="#01013A"/>
</svg>
