<svg width="48" height="48" viewBox="0 0 48 48" fill="none" xmlns="http://www.w3.org/2000/svg">
<path d="M24.5 6.5C34.4411 6.5 42.5 14.5589 42.5 24.5C42.5 34.4411 34.4411 42.5 24.5 42.5C14.5589 42.5 6.5 34.4411 6.5 24.5C6.5 14.5589 14.5589 6.5 24.5 6.5ZM24.5 8C15.3873 8 8 15.3873 8 24.5C8 33.6127 15.3873 41 24.5 41C33.6127 41 41 33.6127 41 24.5C41 15.3873 33.6127 8 24.5 8ZM24.5049 18.2051C25.3079 18.2051 26.011 18.3509 26.6133 18.6426C27.2153 18.9342 27.6834 19.3281 28.0166 19.8242C28.3536 20.3166 28.5204 20.8699 28.5166 21.4834C28.5203 22.1347 28.3171 22.6778 27.9082 23.1133C27.5029 23.5489 26.9747 23.8259 26.3232 23.9434V24.0342C27.179 24.144 27.8304 24.4412 28.2773 24.9258C28.7281 25.4068 28.952 26.0099 28.9482 26.7334C28.952 27.3961 28.7603 27.985 28.374 28.5C27.9915 29.0151 27.4632 29.4204 26.7891 29.7158C26.1148 30.0113 25.3419 30.1592 24.4707 30.1592C23.6224 30.1592 22.8669 30.0133 22.2041 29.7217C21.5451 29.4263 21.0242 29.0209 20.6416 28.5059C20.2628 27.9869 20.068 27.388 20.0566 26.71H22.5332C22.5483 26.9939 22.6412 27.2441 22.8115 27.46C22.9858 27.6721 23.217 27.8377 23.5049 27.9551C23.7927 28.0725 24.1168 28.1309 24.4766 28.1309C24.8515 28.1309 25.1828 28.0642 25.4707 27.9316C25.7586 27.7991 25.9846 27.6157 26.1475 27.3809C26.3103 27.1461 26.3916 26.8751 26.3916 26.5684C26.3916 26.2578 26.3041 25.9828 26.1299 25.7441C25.9594 25.5018 25.7135 25.3121 25.3916 25.1758C25.0734 25.0394 24.6943 24.9717 24.2549 24.9717H23.1699V23.165H24.2549C24.6261 23.165 24.9542 23.1005 25.2383 22.9717C25.526 22.8429 25.7492 22.6647 25.9082 22.4375C26.0673 22.2065 26.1474 21.9376 26.1475 21.6309C26.1475 21.3392 26.0767 21.083 25.9365 20.8633C25.8002 20.64 25.6072 20.4657 25.3574 20.3408C25.1113 20.2159 24.8235 20.1534 24.4941 20.1533C24.1609 20.1533 23.8555 20.2138 23.5791 20.335C23.3026 20.4524 23.0807 20.6212 22.9141 20.8408C22.7475 21.0604 22.6589 21.318 22.6475 21.6133H20.2891C20.3005 20.943 20.4921 20.3521 20.8633 19.8408C21.2345 19.3296 21.7346 18.9304 22.3633 18.6426C22.9958 18.3509 23.7095 18.2051 24.5049 18.2051Z" fill="#01013A"/>
</svg>
