<svg width="48" height="48" viewBox="0 0 48 48" fill="none" xmlns="http://www.w3.org/2000/svg">
<path d="M24 6C33.9411 6 42 14.0589 42 24C42 33.9411 33.9411 42 24 42C14.0589 42 6 33.9411 6 24C6 14.0589 14.0589 6 24 6ZM24 7.5C14.8873 7.5 7.5 14.8873 7.5 24C7.5 33.1127 14.8873 40.5 24 40.5C33.1127 40.5 40.5 33.1127 40.5 24C40.5 14.8873 33.1127 7.5 24 7.5ZM14.4453 26.2432C14.4453 26.822 14.5748 27.3394 14.834 27.7939C15.0932 28.2448 15.4571 28.6002 15.9258 28.8594C16.3981 29.1186 16.9509 29.248 17.583 29.248C18.2149 29.248 18.7671 29.1185 19.2393 28.8594C19.7114 28.6002 20.0754 28.2448 20.3311 27.7939C20.5903 27.3394 20.7197 26.822 20.7197 26.2432V19.0898H21.7158V26.3125C21.7158 27.0546 21.5422 27.7188 21.1943 28.3047C20.8464 28.887 20.3616 29.3472 19.7402 29.6846C19.1224 30.0183 18.4032 30.1855 17.583 30.1855C16.7664 30.1855 16.0471 30.0169 15.4258 29.6797C14.8044 29.3424 14.3197 28.8821 13.9717 28.2998C13.6237 27.7174 13.4492 27.0547 13.4492 26.3125V19.0898H14.4453V26.2432ZM32.042 28.2354H32.127V19.0898H33.1074V29.999H32.1377L25.6924 20.8633H25.6074V29.999H24.6113V19.0898H25.5752L32.042 28.2354Z" fill="#01013A"/>
</svg>
