<svg width="48" height="48" viewBox="0 0 48 48" fill="none" xmlns="http://www.w3.org/2000/svg">
<path d="M24.5 6.5C34.4411 6.5 42.5 14.5589 42.5 24.5C42.5 34.4411 34.4411 42.5 24.5 42.5C14.5589 42.5 6.5 34.4411 6.5 24.5C6.5 14.5589 14.5589 6.5 24.5 6.5ZM24.5 8C15.3873 8 8 15.3873 8 24.5C8 33.6127 15.3873 41 24.5 41C33.6127 41 41 33.6127 41 24.5C41 15.3873 33.6127 8 24.5 8ZM27.915 21.0117H22.8291L22.5283 23.9258H22.5967C22.8012 23.6381 23.1098 23.3993 23.5225 23.21C23.9353 23.0206 24.3978 22.9258 24.9092 22.9258C25.6099 22.9258 26.235 23.0914 26.7842 23.4209C27.3332 23.7504 27.7668 24.2027 28.085 24.7783C28.4031 25.3503 28.5604 26.0096 28.5566 26.7559C28.5604 27.5398 28.3791 28.2369 28.0117 28.8467C27.6482 29.4526 27.1385 29.9299 26.4834 30.2783C25.8319 30.623 25.0736 30.7959 24.21 30.7959C23.4071 30.7959 22.6912 30.6479 22.0625 30.3525C21.4376 30.0571 20.9416 29.6497 20.5742 29.1309C20.2068 28.6119 20.0152 28.0171 20 27.3467H22.3867C22.4133 27.7973 22.602 28.1631 22.9541 28.4434C23.3063 28.7236 23.7252 28.8632 24.21 28.8633C24.5963 28.8633 24.9379 28.7789 25.2334 28.6084C25.5325 28.4342 25.765 28.1933 25.9316 27.8867C26.1021 27.5762 26.1875 27.2198 26.1875 26.8184C26.1875 26.4093 26.1 26.0489 25.9258 25.7383C25.7554 25.4279 25.5187 25.1859 25.2158 25.0117C24.9128 24.8375 24.5659 24.7479 24.1758 24.7441C23.835 24.7442 23.5035 24.814 23.1816 24.9541C22.8635 25.0942 22.6155 25.2859 22.4375 25.5283L20.25 25.1367L20.8008 19H27.915V21.0117Z" fill="#01013A"/>
</svg>
