<svg width="48" height="48" viewBox="0 0 48 48" fill="none" xmlns="http://www.w3.org/2000/svg">
<path fill-rule="evenodd" clip-rule="evenodd" d="M33.6464 13.6464C33.8417 13.4512 34.1582 13.4512 34.3535 13.6464C34.5487 13.8417 34.5487 14.1582 34.3535 14.3535L24.707 24L34.3535 33.6464C34.5487 33.8417 34.5487 34.1582 34.3535 34.3535C34.1582 34.5487 33.8417 34.5487 33.6464 34.3535L24 24.707L14.3535 34.3535C14.1582 34.5487 13.8417 34.5487 13.6464 34.3535C13.4512 34.1582 13.4512 33.8417 13.6464 33.6464L23.2929 24L13.6464 14.3535C13.4512 14.1582 13.4512 13.8417 13.6464 13.6464C13.8417 13.4512 14.1582 13.4512 14.3535 13.6464L24 23.2929L33.6464 13.6464Z" fill="#01013A"/>
</svg>
