<svg width="48" height="48" viewBox="0 0 48 48" fill="none" xmlns="http://www.w3.org/2000/svg">
<path d="M24 6C33.9411 6 42 14.0589 42 24C42 33.9411 33.9411 42 24 42C14.0589 42 6 33.9411 6 24C6 14.0589 14.0589 6 24 6ZM24 7.5C14.8873 7.5 7.5 14.8873 7.5 24C7.5 33.1127 14.8873 40.5 24 40.5C33.1127 40.5 40.5 33.1127 40.5 24C40.5 14.8873 33.1127 7.5 24 7.5ZM23.3584 17.2354C24.0093 16.6905 25 17.1531 25 18.002V30.7197C24.9996 31.5681 24.0092 32.0306 23.3584 31.4863L18.5098 27.4268C18.3298 27.2761 18.1019 27.1943 17.8672 27.1943H15C14.4479 27.1943 14.0003 26.7464 14 26.1943V22.5273C14 21.9751 14.4477 21.5273 15 21.5273H17.8672C18.1018 21.5273 18.3298 21.4445 18.5098 21.2939L23.3584 17.2354ZM31.7168 17.4482C31.9159 17.3115 32.1792 17.3387 32.3467 17.5L32.4121 17.5771L32.415 17.5811C32.4164 17.5831 32.4178 17.5866 32.4199 17.5898C32.4245 17.5966 32.4315 17.6061 32.4395 17.6182C32.4558 17.643 32.4797 17.6796 32.5088 17.7256C32.5671 17.8179 32.6495 17.952 32.7471 18.123C32.9424 18.4657 33.2013 18.9598 33.46 19.5684C33.9759 20.7822 34.4999 22.4763 34.5 24.3604C34.5 26.2444 33.9759 27.9385 33.46 29.1523C33.2014 29.7606 32.9424 30.254 32.7471 30.5967C32.6495 30.7679 32.5671 30.9027 32.5088 30.9951C32.4797 31.0411 32.4559 31.0777 32.4395 31.1025C32.4315 31.1146 32.4245 31.1241 32.4199 31.1309C32.4178 31.1341 32.4163 31.1376 32.415 31.1396L32.4121 31.1426C32.2557 31.37 31.9443 31.4287 31.7168 31.2725C31.4894 31.1161 31.4317 30.8047 31.5879 30.5771L31.5908 30.5723C31.5937 30.568 31.5992 30.5612 31.6055 30.5518C31.6183 30.5323 31.6377 30.5011 31.6631 30.4609C31.714 30.3802 31.7884 30.2586 31.8779 30.1016C32.0575 29.7865 32.299 29.3278 32.54 28.7607C33.024 27.6222 33.5 26.0656 33.5 24.3604C33.4999 22.6551 33.024 21.0985 32.54 19.96C32.299 19.3929 32.0575 18.9341 31.8779 18.6191C31.7884 18.4621 31.714 18.3405 31.6631 18.2598C31.6377 18.2196 31.6183 18.1884 31.6055 18.1689C31.5992 18.1595 31.5937 18.1527 31.5908 18.1484L31.5879 18.1436L31.5391 18.0547C31.4487 17.8406 31.5179 17.585 31.7168 17.4482ZM28.6475 19.5059C28.8433 19.3116 29.16 19.3124 29.3545 19.5078L29.3848 19.5381C29.4018 19.556 29.4253 19.5826 29.4551 19.6152C29.5149 19.6808 29.5988 19.7757 29.6982 19.8965C29.8971 20.138 30.1614 20.4865 30.4258 20.917C30.9501 21.7709 31.4999 22.9886 31.5 24.3604C31.4999 25.7321 30.9501 26.9498 30.4258 27.8037C30.1614 28.2342 29.8971 28.5827 29.6982 28.8242C29.5988 28.945 29.5149 29.0399 29.4551 29.1055C29.4253 29.1381 29.4018 29.1647 29.3848 29.1826L29.3545 29.2129C29.1599 29.4084 28.8433 29.4091 28.6475 29.2148C28.4521 29.0204 28.4514 28.7046 28.6455 28.5088L28.6475 28.5059C28.65 28.5032 28.6544 28.4983 28.6602 28.4922C28.6724 28.4794 28.6922 28.4586 28.7168 28.4316C28.7663 28.3774 28.8392 28.2948 28.9268 28.1885C29.1028 27.9747 29.3389 27.6635 29.5742 27.2803C30.0497 26.5057 30.4999 25.4732 30.5 24.3604C30.4999 23.2475 30.0497 22.2149 29.5742 21.4404C29.3389 21.0572 29.1028 20.746 28.9268 20.5322C28.8392 20.4259 28.7663 20.3433 28.7168 20.2891C28.6922 20.2621 28.6724 20.2413 28.6602 20.2285C28.6543 20.2224 28.65 20.2175 28.6475 20.2148L28.6455 20.2129C28.4513 20.017 28.452 19.7004 28.6475 19.5059ZM26.667 21.4873C26.8471 21.3267 27.1114 21.3204 27.2979 21.459L27.373 21.5273L27.374 21.5283L27.375 21.5303C27.3755 21.5308 27.3777 21.5328 27.3789 21.5342C27.3819 21.5375 27.386 21.5424 27.3906 21.5479C27.4002 21.559 27.4138 21.5744 27.4297 21.5938C27.4617 21.6327 27.5057 21.6887 27.5576 21.7588C27.6618 21.8993 27.7999 22.1016 27.9375 22.3506C28.2096 22.843 28.4999 23.5538 28.5 24.3604C28.4999 25.1669 28.2096 25.8777 27.9375 26.3701C27.7999 26.6191 27.6618 26.8214 27.5576 26.9619C27.5057 27.032 27.4617 27.088 27.4297 27.127C27.4138 27.1463 27.4002 27.1617 27.3906 27.1729C27.386 27.1783 27.3819 27.1832 27.3789 27.1865C27.3775 27.1881 27.375 27.1904 27.375 27.1904L27.374 27.1924L27.373 27.1934C27.1891 27.3991 26.8729 27.4171 26.667 27.2334C26.4616 27.0498 26.4433 26.7342 26.626 26.5283L26.627 26.5273L26.6562 26.4922C26.6788 26.4647 26.7135 26.422 26.7549 26.3662C26.8381 26.2539 26.9504 26.0895 27.0625 25.8867C27.2903 25.4744 27.4999 24.9341 27.5 24.3604C27.4999 23.7866 27.2903 23.2463 27.0625 22.834C26.9504 22.6312 26.8381 22.4668 26.7549 22.3545C26.7135 22.2987 26.6788 22.256 26.6562 22.2285L26.627 22.1934C26.4433 21.9875 26.4613 21.6712 26.667 21.4873Z" fill="#01013A"/>
</svg>
