<svg width="48" height="48" viewBox="0 0 48 48" fill="none" xmlns="http://www.w3.org/2000/svg">
<path d="M24.5 6.5C34.4411 6.5 42.5 14.5589 42.5 24.5C42.5 34.4411 34.4411 42.5 24.5 42.5C14.5589 42.5 6.5 34.4411 6.5 24.5C6.5 14.5589 14.5589 6.5 24.5 6.5ZM24.5 8C15.3873 8 8 15.3873 8 24.5C8 33.6127 15.3873 41 24.5 41C33.6127 41 41 33.6127 41 24.5C41 15.3873 33.6127 8 24.5 8ZM26.9375 18V25.6191H28.3809V27.5908H26.9375V29.6367H24.585V27.5908H19V25.6533L23.8584 18H26.9375ZM24.54 20.6816L21.4775 25.5283V25.6191H24.6309V20.6816H24.54Z" fill="#01013A"/>
</svg>
